PathFileType	4	(X/Y/Z)	C:\Users\WrightLab\Desktop\Jo\P5V210.trc
DataRate	CameraRate	NumFrames	NumMarkers	Units	OrigDataRate	OrigDataStartFrame	OrigNumFrames
100.00	100.00	       12	19	mm	100.00	538	       716
Frame#	Time	Headset_Front			Headset_Back			Headset_Left			Headset_Right			Left_Shoulder			Right_Shoulder			Sternum			C7			Left Elbow			Right Elbow			Left Wrist			Right Wrist			Left ASIS			Right ASIS			S2			Left Knee			Right Knee			Left Ankle			Right Ankle			
		X1	Y1	Z1	X2	Y2	Z2	X3	Y3	Z3	X4	Y4	Z4	X5	Y5	Z5	X6	Y6	Z6	X7	Y7	Z7	X8	Y8	Z8	X9	Y9	Z9	X10	Y10	Z10	X11	Y11	Z11	X12	Y12	Z12	X13	Y13	Z13	X14	Y14	Z14	X15	Y15	Z15	X16	Y16	Z16	X17	Y17	Z17	X18	Y18	Z18	X19	Y19	Z19	

538	5.370	47.95395	1452.56250	-133.88914				7.18911	1591.28979	-288.45563	-38.71599	1555.14783	-61.85309	-123.40479	1517.40784	-439.09985	-171.75258	1446.46057	-54.24378	-104.98227	1305.89001	-239.36931	-285.39978	1534.18250	-244.25116	-114.78330	1230.46899	-541.58337	-72.36993	1218.23157	73.30109	-30.09260	996.66052	-487.95636	150.90248	1106.48035	99.02834	-73.07916	937.40771	-368.01718	-177.92516	939.50897	-109.23048	-360.74225	994.95654	-357.90103	-75.93349	497.46719	-400.40955	-307.74222	494.02951	-87.69633	-129.36128	82.88863	-341.48935	-400.63620	99.23804	-176.06583	
539	5.380	48.93035	1452.51245	-133.66998				8.08572	1590.73926	-287.05319	-38.07165	1554.87622	-61.58349	-122.59656	1517.25427	-438.58868	-171.41139	1446.28638	-54.18472	-104.56297	1306.26819	-239.61630	-284.50760	1534.19434	-244.13754	-114.61020	1231.33423	-541.53473	-71.39959	1218.08484	73.12815	-29.68800	996.52216	-487.83469	152.15083	1106.29248	99.19030	-73.01118	937.29584	-368.31113	-177.11903	939.14331	-109.66285	-360.42264	995.20056	-358.69394	-75.48966	497.38727	-401.17194	-307.76614	494.16608	-88.04328	-128.75412	82.65623	-341.31125	-400.63217	99.24114	-176.04501	
540	5.390	49.67068	1452.41846	-133.39337				8.73479	1590.58191	-286.59708	-37.76146	1554.68555	-61.20160	-122.14555	1517.62402	-438.35944	-170.47643	1445.72839	-54.46513	-104.52749	1305.51074	-239.43535	-283.75577	1534.09875	-243.73312	-114.19585	1231.51123	-541.05499	-70.24216	1217.93372	73.18034	-29.51438	996.43469	-487.78043	152.26332	1106.08850	99.09703	-72.62045	937.29443	-368.42001	-177.14070	938.92279	-109.56046	-360.01749	995.33636	-359.14008	-75.23276	497.27682	-402.16333	-308.03192	494.35211	-87.98058	-129.02994	82.67785	-341.51309	-400.64236	99.24648	-176.04822	
541	5.400	50.03870	1452.49292	-133.28986				9.42895	1590.63501	-285.75189	-37.46214	1554.47803	-60.82417	-121.33662	1517.68567	-437.94388	-169.84566	1445.32214	-54.24541	-103.94185	1305.48889	-239.20996	-282.82684	1533.86426	-243.31212	-113.20840	1231.52295	-540.80353	-68.76942	1217.78760	73.17356	-29.55621	996.27216	-487.65906	153.58916	1105.88452	100.05089	-72.42750	937.30060	-368.43399	-177.12862	938.69470	-109.47598	-359.74908	995.44708	-359.86603	-75.23433	497.06110	-402.47479	-308.05231	494.29095	-88.45670	-129.22270	82.68256	-341.45120	-400.62750	99.20679	-176.07050	
542	5.410	50.54091	1451.84265	-132.71907				10.18193	1590.23962	-285.81927	-36.67001	1553.72375	-60.43747	-120.95100	1517.75171	-437.89883	-169.07201	1444.96423	-54.13715	-103.32433	1304.87451	-239.67088	-282.40039	1533.85229	-243.11118	-112.50877	1231.84546	-541.19202	-68.05247	1217.79578	73.71630	-29.51438	996.43469	-487.78043	154.55698	1105.40564	100.60674	-72.21202	937.32050	-368.44308	-177.02676	938.40991	-109.27051	-359.30539	995.50433	-360.06436	-74.56452	497.06464	-402.98306	-308.10574	494.28571	-88.47773	-128.97870	82.42403	-341.37366	-400.63257	99.23381	-176.06149	
543	5.420	50.96000	1451.62256	-132.54349				10.99558	1590.02319	-284.75119	-35.86423	1553.08423	-59.82262	-120.07991	1517.60815	-437.38455	-168.91660	1444.96875	-53.89252	-102.76205	1304.50879	-239.92529	-281.91269	1533.92883	-243.07323	-111.65112	1231.55896	-540.69733	-67.50693	1217.66943	73.67424	-29.20366	996.59637	-487.77744	155.21709	1105.32751	101.29992	-71.74406	937.19659	-368.92892	-176.93744	938.02863	-109.35114	-358.80179	995.58142	-359.78598	-74.38440	496.99646	-403.21417	-308.34335	494.45456	-88.54617	-128.97655	82.42478	-341.37347	-400.63361	99.25240	-176.05865	
544	5.430	51.40866	1450.69678	-132.22171				11.68998	1589.93018	-284.82617	-35.37005	1552.45447	-59.58307	-119.55036	1517.55518	-436.21448	-168.59996	1444.97961	-53.86046	-101.67334	1304.51477	-239.44159	-281.44727	1533.96680	-242.81740	-110.65932	1231.44165	-540.83362	-67.18145	1217.60706	73.77051	-28.67781	996.86670	-487.94922	155.54749	1105.32239	101.52507	-71.36784	937.17004	-369.18188	-176.80980	937.43457	-109.38947	-358.38516	995.84149	-360.42456	-74.00196	497.06354	-403.62701	-308.34387	494.43106	-88.70629	-128.79219	82.60197	-341.33313	-400.62485	99.42537	-176.25510	
545	5.440	51.44023	1449.96545	-132.16217				13.69951	1589.34790	-286.17776	-35.37602	1552.00269	-59.13149	-118.16932	1518.38757	-436.11639	-168.13672	1444.93103	-53.69194	-101.17368	1304.73157	-239.75029	-280.97903	1534.01746	-242.43123	-109.95925	1231.34265	-540.54034	-66.64977	1217.56519	73.90070	-28.36706	996.89655	-487.73679	156.13470	1105.21472	102.57827	-71.11736	937.48206	-369.82193	-176.37602	937.35016	-109.38708	-357.79770	996.18439	-360.46130	-73.68989	497.19632	-404.67111	-308.50668	494.36050	-89.05309	-128.99559	82.38922	-341.38828	-400.61096	99.22321	-176.07051	
546	5.450	52.26303	1449.22632	-131.46161				14.65504	1589.30481	-285.34882	-34.99205	1551.57727	-58.76657	-117.56259	1518.36536	-436.42639	-167.94217	1444.76636	-53.45232	-100.82536	1304.56396	-239.72420	-280.22827	1534.12744	-242.55672	-108.80161	1231.11560	-540.02393	-65.73425	1217.27380	73.97762	-27.68533	996.98773	-487.73328	156.89758	1105.23389	103.44240	-70.78534	937.24689	-370.03275	-175.46832	937.36108	-109.46591	-357.34631	996.48999	-360.83212	-73.21296	497.37027	-405.02588	-308.69797	494.19708	-89.23785	-128.99258	82.37849	-341.39340	-400.61859	99.40234	-176.27470	
547	5.460	52.54826	1449.02686	-130.79590				15.27110	1589.24146	-285.08075	-34.45466	1550.77454	-58.45580	-117.20045	1518.44055	-436.38004	-166.70703	1443.82556	-53.63999	-100.83209	1304.38855	-239.68730	-279.35229	1534.30518	-242.57591	-108.36633	1231.43091	-539.75781	-65.55836	1217.27271	74.39526	-27.19508	996.96698	-488.13440	157.43927	1105.28101	104.08640	-70.59707	937.27802	-370.03369	-175.02028	937.40656	-109.99177	-356.96194	996.40216	-360.67157	-72.89120	497.00412	-406.03726	-308.65332	494.20801	-89.41907	-129.13112	82.40186	-341.38968	-400.59842	99.41193	-176.24570	
548	5.470	52.44848	1448.40942	-130.51892				15.95346	1589.12695	-284.22122	-33.66375	1549.98267	-58.01482	-116.33204	1518.27881	-436.26642	-166.32381	1443.71863	-53.44688	-100.23532	1304.11609	-239.73247	-278.71286	1534.38867	-242.72993	-108.10333	1231.48694	-539.76306	-65.03922	1217.21838	74.59282	-26.60778	997.26550	-487.80029	157.95601	1105.40698	104.81027	-70.16119	937.26434	-370.20871	-174.97661	937.40649	-109.97690	-356.60907	996.49426	-360.90625	-72.16826	496.69971	-406.37286	-308.69263	494.21237	-89.43730	-128.86523	82.15671	-341.30771	-400.62427	99.41560	-176.25681	
549	5.480	52.91708	1448.08813	-129.83427				16.75026	1589.15479	-283.55722	-33.00917	1549.62378	-57.70158	-115.59819	1518.32996	-435.14917	-165.67305	1443.36218	-53.42052	-99.91329	1303.88220	-239.88708	-277.96664	1534.32678	-242.38501	-107.81881	1231.63135	-539.84631	-64.58327	1217.26941	75.06721	-26.17695	997.09888	-488.10370	158.43674	1105.50732	105.70190	-69.83369	937.13483	-370.31479	-174.98257	937.03760	-110.50647	-356.26846	996.86237	-361.86871	-72.05175	496.71680	-406.43283	-308.77209	493.37704	-90.42562	-128.87512	82.13623	-341.31631	-400.62796	99.38226	-176.28355	
